Coordinates
version=1
nRows=5
nColumns=63
inDegrees=yes

Units are S.I. units (second, meters, Newtons, ...)
If the header above contains a line with 'inDegrees', this indicates whether rotational values are in degrees (yes) or radians (no).

endheader
time	pelvis_tilt	pelvis_list	pelvis_rotation	pelvis_tx	pelvis_ty	pelvis_tz	hip_flexion_r	hip_adduction_r	hip_rotation_r	knee_angle_r	knee_angle_r_beta	ankle_angle_r	subtalar_angle_r	mtp_angle_r	hip_flexion_l	hip_adduction_l	hip_rotation_l	knee_angle_l	knee_angle_l_beta	ankle_angle_l	subtalar_angle_l	mtp_angle_l	L5_S1_Flex_Ext	L5_S1_Lat_Bending	L5_S1_axial_rotation	L4_L5_Flex_Ext	L4_L5_Lat_Bending	L4_L5_axial_rotation	L3_L4_Flex_Ext	L3_L4_Lat_Bending	L3_L4_axial_rotation	L2_L3_Flex_Ext	L2_L3_Lat_Bending	L2_L3_axial_rotation	L1_L2_Flex_Ext	L1_L2_Lat_Bending	L1_L2_axial_rotation	L1_T12_Flex_Ext	L1_T12_Lat_Bending	L1_T12_axial_rotation	Abs_r3	Abs_r2	Abs_r1	Abs_t1	Abs_t2	neck_flexion	neck_bending	neck_rotation	arm_flex_r	arm_add_r	arm_rot_r	elbow_flex_r	pro_sup_r	wrist_flex_r	wrist_dev_r	arm_flex_l	arm_add_l	arm_rot_l	elbow_flex_l	pro_sup_l	wrist_flex_l	wrist_dev_l
      2.48214286	     -1.21826466	     -0.44015605	     93.53614181	      0.21411408	      0.83265449	      0.47930017	     -3.84601154	      2.24888881	     15.64354758	      5.18636563	      0.09051916	     41.52592661	    -16.52551204	      0.00000000	     -4.38143443	      0.01735927	     24.10843746	      5.90118115	      0.10299504	     42.29669223	    -17.39083990	      0.00000000	      0.61549930	     -0.08076199	      0.13950763	      1.14304375	     -0.10741344	      0.14822686	      1.01120380	     -0.19636470	      0.14822686	      0.70345415	     -0.19636470	      0.12206918	      0.57155265	     -0.16468984	      0.11334995	      0.35169630	     -0.12510032	      0.10463073	      4.39644994	     -0.91359575	      0.77589961	      0.00000000	      0.00000000	     28.29152254	     -3.86135243	    -10.42944531	     21.08453853	     -5.38573735	     69.24803955	     58.04169475	     59.63649351	     14.10245329	      9.31431971	     13.86019259	     -6.28538595	     87.38507214	     45.39257765	     29.15280623	      1.30452809	     15.82623713
      2.50000000	     -1.13506730	     -0.27599299	     93.60002026	      0.21225722	      0.83304844	      0.48328001	     -3.66621722	      2.24834664	     14.97545079	      5.40784964	      0.09438478	     41.10285800	    -16.77739979	      0.00000000	     -4.16738816	      0.12320468	     24.18542248	      6.05431250	      0.10566769	     42.27475797	    -17.35772146	      0.00000000	      0.57404079	     -0.05091798	      0.25061051	      1.06605114	     -0.06772091	      0.26627366	      0.94309161	     -0.12380198	      0.26627366	      0.65607121	     -0.12380198	      0.21928419	      0.53305427	     -0.10383195	      0.20362104	      0.32800691	     -0.07887195	      0.18795788	      4.10031593	     -0.57599439	      1.39382046	      0.00000000	      0.00000000	     28.27384175	     -4.21021850	    -10.39156954	     21.15028128	     -6.33688305	     69.04755254	     57.59257125	     59.96761917	     13.54804164	      8.96633637	     14.86614975	     -6.93726320	     86.48235577	     46.49223097	     29.41698987	      1.45086534	     15.95101308
      2.51785714	     -1.13975815	     -0.15202461	     93.88380954	      0.21049082	      0.83315381	      0.48653851	     -3.37408721	      2.16906263	     13.51338112	      5.94927630	      0.10383446	     41.32443471	    -15.99549330	      0.00000000	     -3.90436782	      0.28508712	     24.35106951	      6.33358417	      0.11054190	     42.29518819	    -17.27092977	      0.00000000	      0.54211224	     -0.04653394	      0.23186633	      1.00675664	     -0.06189014	      0.24635798	      0.89063620	     -0.11314263	      0.24635798	      0.61958008	     -0.11314263	      0.20288304	      0.50340543	     -0.09489202	      0.18839139	      0.30976293	     -0.07208108	      0.17389975	      3.87225353	     -0.52640127	      1.28957097	      0.00000000	      0.00000000	     28.26581603	     -4.99953974	    -11.32115142	     21.46673667	     -7.02665774	     70.09635672	     57.68772103	     74.50497322	      7.01112999	      2.28859253	     13.97661681	     -8.14108929	     79.94031062	     48.53457565	     40.85085370	      1.16303391	     20.28540420
      2.53571429	     -1.04111160	     -0.21744307	     94.23887144	      0.20862053	      0.83305472	      0.48968515	     -2.78767208	      2.23955071	     12.54835192	      6.69797378	      0.11690170	     41.27993116	    -16.09658866	      0.00000000	     -3.36281926	      0.37649506	     24.55925014	      6.77490773	      0.11824445	     42.25751053	    -17.32924864	      0.00000000	      0.55330964	     -0.03122318	      0.31399561	      1.02755133	     -0.04152683	      0.33362034	      0.90903240	     -0.07591603	      0.33362034	      0.63237759	     -0.07591603	      0.27474616	      0.51380333	     -0.06367030	      0.25512144	      0.31616113	     -0.04836470	      0.23549671	      3.95223542	     -0.35320283	      1.74634940	      0.00000000	      0.00000000	     28.23627153	     -5.33232085	    -11.88480135	     20.32732354	     -7.49602551	     67.68112447	     57.66742810	     80.07377882	      6.28436684	      1.33394570	     14.78487245	     -8.61469312	     79.95064007	     48.88437755	     47.30502294	      3.14245079	     19.74162856
      2.55357143	     -1.00892051	     -0.17429887	     94.64342530	      0.20699840	      0.83297043	      0.49251325	     -2.34707365	      2.26247781	     11.63086371	      7.47124657	      0.13039785	     41.31582812	    -16.14997299	      0.00000000	     -2.98022526	      0.49358965	     24.81748770	      7.17686241	      0.12525988	     42.22292903	    -17.38944366	      0.00000000	      0.55366932	     -0.02560221	      0.31386151	      1.02821930	     -0.03405094	      0.33347785	      0.90962333	     -0.06224922	      0.33347785	      0.63278867	     -0.06224922	      0.27462882	      0.51413733	     -0.05220803	      0.25501247	      0.31636665	     -0.03965783	      0.23539613	      3.95480459	     -0.28961735	      1.74560354	      0.00000000	      0.00000000	     28.18931388	     -5.24818509	    -11.96403971	     19.89468979	     -7.63663257	     66.99713655	     57.44983992	     79.14302708	      6.03697971	      0.98571564	     15.62407849	     -8.84710911	     82.31614125	     48.88881229	     48.93038381	      2.98790475	     19.02349359
